PathFileType	4	(X/Y/Z)	output.trc
DataRate	CameraRate	NumFrames	NumMarkers	Units	OrigDataRate	OrigDataStartFrame	OrigNumFrames
128	128	19	47	mm	128	728	2911
Frame#	Time	C7			LSHO			RSHO			CLAV			T10			LUPA			RELB			LELB			LFRA			RFRA			RWRB			RWRA			RFIN			LWRB			LWRA			LFIN			RASI			LASI			RPSI			LPSI			RANK			LANK			LMMA			LHEE			LTOE			RMMA			RHEE			RTOE			RMT5			LMT5			RKNE			LKNE			LMFC			RMFC			RFM2			LFM2			RTP2			RTP3			RTA3			LTP2			LTP3			LTA3			LBHD			RBHD			RFHD			RGTR			LGTR			
		X1	Y1	Z1	X2	Y2	Z2	X3	Y3	Z3	X4	Y4	Z4	X5	Y5	Z5	X6	Y6	Z6	X7	Y7	Z7	X8	Y8	Z8	X9	Y9	Z9	X10	Y10	Z10	X11	Y11	Z11	X12	Y12	Z12	X13	Y13	Z13	X14	Y14	Z14	X15	Y15	Z15	X16	Y16	Z16	X17	Y17	Z17	X18	Y18	Z18	X19	Y19	Z19	X20	Y20	Z20	X21	Y21	Z21	X22	Y22	Z22	X23	Y23	Z23	X24	Y24	Z24	X25	Y25	Z25	X26	Y26	Z26	X27	Y27	Z27	X28	Y28	Z28	X29	Y29	Z29	X30	Y30	Z30	X31	Y31	Z31	X32	Y32	Z32	X33	Y33	Z33	X34	Y34	Z34	X35	Y35	Z35	X36	Y36	Z36	X37	Y37	Z37	X38	Y38	Z38	X39	Y39	Z39	X40	Y40	Z40	X41	Y41	Z41	X42	Y42	Z42	X43	Y43	Z43	X44	Y44	Z44	X45	Y45	Z45	X46	Y46	Z46	X47	Y47	Z47	
728	5.67969	1292.29831	1281.64295	1288.66302	1140.58332	1276.12609	1163.81186	1088.47959	1058.44628	882.68259	935.27722	782.57787	780.24913	685.47821	751.60188	747.04148	650.26193	1056.61523	1041.50065	1200.46393	1198.61443	73.00142	73.84485	75.55680	47.17874	30.97323	71.92407	46.91580	34.33469	20.10989	26.24049	510.14989	520.76300	535.56048	527.86351	684.38798	682.39700	316.21862	375.23032	341.97281	307.00826	341.18115	334.94392	1187.53476	1587.53476	1217.53476	1187.53476	1587.53476	1357.53476	1387.53476	1587.53476	1357.53476	782.57787	751.60188	
729	5.68750	1291.49605	1280.92323	1287.87486	1139.97730	1275.93469	1163.08246	1088.16921	1058.16088	882.23158	934.92772	782.27431	779.96573	685.13380	751.24332	746.73048	649.87372	1056.71654	1041.64443	1200.53074	1198.64448	72.89230	73.84231	75.51402	47.21551	30.91292	71.88129	47.08757	34.34672	20.10163	26.27508	510.13369	520.77857	535.57745	527.84874	684.38285	682.57347	316.17799	375.21834	341.84411	306.97211	341.32012	334.99627	1186.76471	1586.76471	1216.76471	1186.76471	1586.76471	1356.76471	1386.76471	1586.76471	1356.76471	782.27431	751.24332	
730	5.69531	1290.80238	1280.26352	1287.06766	1139.12182	1275.75355	1162.50621	1087.87133	1057.94620	881.87247	934.61930	781.98025	779.63360	684.78221	750.86693	746.39611	649.53644	1056.77415	1041.86863	1200.55385	1198.75493	72.89487	73.83575	75.61615	47.23123	30.96016	71.90102	46.97303	34.29397	20.07909	26.26845	510.13841	520.79419	535.61090	527.79754	684.35743	682.51616	316.25851	375.22591	341.55405	307.11475	341.25912	334.98626	1186.04452	1586.04452	1216.04452	1186.04452	1586.04452	1356.04452	1386.04452	1586.04452	1356.04452	781.98025	750.86693	
731	5.70312	1290.06100	1279.64163	1286.27025	1138.30345	1275.52698	1161.93296	1087.55439	1057.68313	881.49885	934.25077	781.67328	779.29839	684.45214	750.52073	746.00312	649.25160	1056.83777	1041.98883	1200.58298	1198.76140	72.93163	73.91330	76.02026	47.24126	30.90310	71.88012	46.98765	34.30126	20.04027	26.20468	510.11392	520.75133	535.68192	527.81347	684.38144	682.53500	315.96122	375.10367	341.62137	307.11457	341.27402	335.05952	1185.32429	1585.32429	1215.32429	1185.32429	1585.32429	1355.32429	1385.32429	1585.32429	1355.32429	781.67328	750.52073	
732	5.71094	1289.19807	1278.95125	1285.50076	1137.61125	1275.37180	1161.27737	1087.21888	1057.47085	881.12311	933.88566	781.33447	778.97725	684.07716	750.28099	745.65398	648.87295	1056.93095	1042.17486	1200.64165	1198.83369	72.96065	73.90163	75.64918	47.29479	30.91012	71.88173	47.06503	34.24648	20.06035	26.22189	510.08350	520.73624	535.75496	527.76345	684.36410	682.56721	315.98764	375.11233	341.40315	307.14221	341.32783	335.08529	1184.55003	1584.55003	1214.55003	1184.55003	1584.55003	1354.55003	1384.55003	1584.55003	1354.55003	781.33447	750.28099	
733	5.71875	1288.45178	1278.28800	1284.61893	1136.84943	1275.18163	1160.57355	1086.87422	1057.20457	880.70449	933.51119	780.96043	778.54315	683.66395	749.91845	745.26299	648.51077	1056.96183	1042.30715	1200.63804	1198.85224	73.06047	73.91627	76.00931	47.33221	30.98070	71.86301	47.34408	34.27135	20.07942	26.20602	510.03847	520.77702	535.72807	527.77710	684.43410	682.54703	316.04744	374.98006	341.71428	307.24327	341.35362	335.14500	1183.78624	1583.78624	1213.78624	1183.78624	1583.78624	1353.78624	1383.78624	1583.78624	1353.78624	780.96043	749.91845	
734	5.72656	1287.71516	1277.54117	1283.87594	1136.12381	1274.97172	1159.92079	1086.56041	1056.92030	880.32547	933.12226	780.60011	778.13901	683.28641	749.59486	744.93245	648.06973	1057.05199	1042.48799	1200.69370	1198.91934	73.01493	73.96334	75.73544	47.36785	30.97560	71.86992	47.45991	34.29442	20.06796	26.22777	510.07490	520.76364	535.81060	527.83268	684.50171	682.47972	315.90039	374.95290	341.27823	307.30307	341.32860	335.22825	1183.04409	1583.04409	1213.04409	1183.04409	1583.04409	1353.04409	1383.04409	1583.04409	1353.04409	780.60011	749.59486	
735	5.73438	1286.87205	1276.82691	1283.00440	1135.46401	1274.74902	1159.30577	1086.22006	1055.97575	880.01558	932.68361	780.17900	777.77648	682.84318	749.16554	744.68675	647.82639	1057.06794	1042.59346	1200.67515	1198.91107	73.14205	74.01137	75.68355	47.35024	30.91940	71.86435	47.21247	34.23048	20.07421	26.19239	510.03138	520.79645	535.75430	527.77336	684.54097	682.55277	315.81202	374.91336	341.57224	307.39057	341.41498	335.29811	1182.23445	1582.23445	1212.23445	1182.23445	1582.23445	1352.23445	1382.23445	1582.23445	1352.23445	780.17900	749.16554	
736	5.74219	1286.19133	1276.27929	1282.21910	1134.77411	1274.49862	1158.68744	1085.81645	1055.73022	879.79769	932.32417	779.78876	777.35398	682.40319	749.00167	744.38434	647.57084	1057.25590	1042.71417	1200.82861	1198.91805	73.18239	74.03254	75.78629	47.41345	30.96589	71.84326	47.27454	34.25487	20.06447	26.28097	510.05668	520.72830	535.81211	527.73467	684.52979	682.59882	315.80763	374.90750	341.78928	307.38014	341.47007	335.27006	1181.56324	1581.56324	1211.56324	1181.56324	1581.56324	1351.56324	1381.56324	1581.56324	1351.56324	779.78876	749.00167	
737	5.75000	1285.29384	1275.65797	1281.40567	1133.81455	1274.26422	1158.07489	1085.42167	1055.53257	879.59941	931.85081	779.40765	776.99285	682.03694	748.63488	744.15008	647.29603	1057.26942	1042.84662	1200.80763	1198.93676	73.14091	74.06222	76.18515	47.40656	30.90702	71.88639	47.37477	34.19473	20.06569	26.23453	510.01470	520.84843	535.80113	527.73645	684.60756	682.53502	315.66983	374.86428	341.63111	307.36596	341.41853	335.30790	1180.78583	1580.78583	1210.78583	1180.78583	1580.78583	1350.78583	1380.78583	1580.78583	1350.78583	779.40765	748.63488	
738	5.75781	1284.57060	1275.10144	1280.65578	1133.23836	1274.03260	1157.32358	1085.00655	1055.39745	879.42372	931.50301	779.05297	776.60012	681.56117	748.54490	743.94045	647.06389	1057.26418	1042.89258	1200.76789	1198.86898	73.23536	74.13349	75.91938	47.55598	30.90455	71.90447	47.81196	34.18956	20.07253	26.21633	509.99175	520.76738	535.82862	527.71913	684.64132	682.46593	315.76296	374.78278	341.49908	307.36145	341.37622	335.30227	1180.10927	1580.10927	1210.10927	1180.10927	1580.10927	1350.10927	1380.10927	1580.10927	1350.10927	779.05297	748.54490	
739	5.76562	1283.86431	1274.56664	1279.91400	1132.53583	1273.82238	1156.72786	1084.67874	1055.25375	879.19044	931.08997	778.66244	776.22396	681.14816	748.41160	743.71986	646.91979	1057.27770	1043.03053	1200.74691	1198.89319	73.43167	74.19440	75.95928	47.63679	30.89960	71.95592	47.71489	34.19268	20.04684	26.24548	510.03959	520.81803	535.83852	527.73471	684.66586	682.48202	315.84724	374.61555	341.45301	307.37414	341.40372	335.27537	1179.44832	1579.44832	1209.44832	1179.44832	1579.44832	1349.44832	1379.44832	1579.44832	1349.44832	778.66244	748.41160	
740	5.77344	1283.16080	1274.02236	1279.15699	1131.99089	1273.60811	1156.19626	1084.27362	1055.15307	879.03286	930.79316	778.27388	775.85016	680.71868	748.26404	743.60244	646.80115	1057.27374	1043.10246	1200.70845	1198.85138	73.41447	74.25182	75.89107	47.81030	30.92204	72.00732	48.15473	34.14835	20.09602	25.88513	510.04101	520.85521	535.88684	527.81040	684.74823	682.92261	315.79810	374.66029	341.49539	307.43021	341.43774	335.40488	1178.78005	1578.78005	1208.78005	1178.78005	1578.78005	1348.78005	1378.78005	1578.78005	1348.78005	778.27388	748.26404	
741	5.78125	1282.51324	1273.61126	1278.39826	1131.33041	1273.44826	1155.78061	1083.94401	1055.05765	878.89260	930.31680	777.97364	775.49285	680.31878	748.21629	743.48367	646.80734	1057.33898	1043.25882	1200.73919	1198.89400	73.67022	74.33211	76.01310	47.89945	30.87786	72.12934	48.28728	34.16670	20.06893	26.24785	510.16571	520.90540	535.95025	527.79430	684.83680	682.63763	315.80775	374.75125	341.32338	307.55885	341.65580	335.54927	1178.17425	1578.17425	1208.17425	1178.17425	1578.17425	1348.17425	1378.17425	1578.17425	1348.17425	777.97364	748.21629	
742	5.78906	1281.79350	1273.14448	1277.70921	1130.86321	1273.30053	1155.37159	1083.61011	1055.06128	878.83317	929.92632	777.57783	775.15208	679.98528	748.17068	743.47566	646.70433	1057.53222	1043.62170	1200.89794	1199.14315	73.66036	74.43611	76.18468	48.00201	30.82716	72.19140	48.50839	34.11691	20.08536	26.27247	510.17977	521.02508	535.99211	527.80293	684.84196	682.85475	315.84661	374.81806	341.54682	307.58622	341.70939	335.55513	1177.54906	1577.54906	1207.54906	1177.54906	1577.54906	1347.54906	1377.54906	1577.54906	1347.54906	777.57783	748.17068	
743	5.79688	1281.14710	1272.76248	1277.04260	1130.19399	1273.17276	1154.95088	1083.34723	1055.04931	878.76360	929.67280	777.36573	774.81735	679.59920	748.20224	743.47995	646.68787	1057.58036	1043.80354	1200.91157	1199.21124	73.85132	74.54230	76.35622	48.18015	30.83246	72.28758	48.62744	34.11991	20.06014	26.31926	510.26925	521.12706	536.13871	527.86907	684.91522	683.27882	315.78587	374.76312	341.50925	307.62909	341.72766	335.52597	1176.98406	1576.98406	1206.98406	1176.98406	1576.98406	1346.98406	1376.98406	1576.98406	1346.98406	777.36573	748.20224	
744	5.80469	1280.61559	1272.42750	1276.42354	1129.69316	1273.04580	1154.59629	1083.08250	1055.16917	878.74656	929.37399	777.02120	774.52826	679.30290	748.24685	743.44598	646.71256	1057.61918	1043.94385	1200.91590	1199.23782	73.94295	74.62935	76.39454	48.29869	30.84063	72.32590	48.81179	34.08613	20.06383	26.26786	510.24560	521.20148	536.12693	527.96256	685.04662	682.79978	315.86569	374.76617	341.39333	307.57848	341.72703	335.50520	1176.48888	1576.48888	1206.48888	1176.48888	1576.48888	1346.48888	1376.48888	1576.48888	1346.48888	777.02120	748.24685	
745	5.81250	1280.11356	1272.09394	1275.83195	1129.10021	1272.98544	1154.43636	1082.81657	1055.27733	878.89255	929.09697	776.81878	774.23669	679.02244	748.35117	743.55320	646.86040	1057.70082	1044.14666	1200.96304	1199.32689	74.08006	74.76858	76.59687	48.44677	30.87290	72.44477	49.00743	34.09243	20.06578	26.29108	510.30258	521.31056	536.22723	527.99906	685.10288	683.47856	315.81373	374.82741	341.37697	307.71077	341.81137	335.54650	1176.01315	1576.01315	1206.01315	1176.01315	1576.01315	1346.01315	1376.01315	1576.01315	1346.01315	776.81878	748.35117	
746	5.82031	1279.54807	1271.85333	1275.32928	1128.55677	1272.88998	1154.22780	1082.59212	1055.41726	878.93857	928.94277	776.54796	774.01627	678.80722	748.50514	743.66199	647.17221	1057.78577	1044.30115	1201.01349	1199.36765	74.21172	74.83746	76.77250	48.60919	30.84941	72.53695	49.15460	34.10835	20.10526	26.33848	510.35670	521.42755	536.30410	528.12330	685.18807	683.71681	315.88810	374.92077	341.59968	307.74415	341.82839	335.77275	1175.57689	1575.57689	1205.57689	1175.57689	1575.57689	1345.57689	1375.57689	1575.57689	1345.57689	776.54796	748.50514	
